<?xml version="1.0" encoding="UTF-8" standalone="no"?>
<!-- Generator: Adobe Illustrator 19.0.0, SVG Export Plug-In . SVG Version: 6.00 Build 0)  -->

<svg
   xmlns:dc="http://purl.org/dc/elements/1.1/"
   xmlns:cc="http://creativecommons.org/ns#"
   xmlns:rdf="http://www.w3.org/1999/02/22-rdf-syntax-ns#"
   xmlns:svg="http://www.w3.org/2000/svg"
   xmlns="http://www.w3.org/2000/svg"
   xmlns:sodipodi="http://sodipodi.sourceforge.net/DTD/sodipodi-0.dtd"
   xmlns:inkscape="http://www.inkscape.org/namespaces/inkscape"
   version="1.1"
   id="Capa_1"
   x="0px"
   y="0px"
   viewBox="0 0 426.667 426.667"
   style="enable-background:new 0 0 426.667 426.667;"
   xml:space="preserve"
   sodipodi:docname="buildings.svg"
   inkscape:version="0.92.2 (5c3e80d, 2017-08-06)"><metadata
     id="metadata9169"><rdf:RDF><cc:Work
         rdf:about=""><dc:format>image/svg+xml</dc:format><dc:type
           rdf:resource="http://purl.org/dc/dcmitype/StillImage" /><dc:title></dc:title></cc:Work></rdf:RDF></metadata><defs
     id="defs9167" /><sodipodi:namedview
     pagecolor="#ffffff"
     bordercolor="#666666"
     borderopacity="1"
     objecttolerance="10"
     gridtolerance="10"
     guidetolerance="10"
     inkscape:pageopacity="0"
     inkscape:pageshadow="2"
     inkscape:window-width="776"
     inkscape:window-height="480"
     id="namedview9165"
     showgrid="false"
     inkscape:zoom="0.55312458"
     inkscape:cx="-11.751421"
     inkscape:cy="213.3335"
     inkscape:window-x="0"
     inkscape:window-y="0"
     inkscape:window-maximized="0"
     inkscape:current-layer="Capa_1" /><g
     id="g9132"
     style="fill:#999999"><g
       id="g9130"
       style="fill:#999999"><g
         id="g9128"
         style="fill:#999999"><path
           d="M213.333,106.667V21.333H0v384h426.667V106.667H213.333z M85.333,362.667H42.667V320h42.667V362.667z M85.333,277.333     H42.667v-42.667h42.667V277.333z M85.333,192H42.667v-42.667h42.667V192z M85.333,106.667H42.667V64h42.667V106.667z      M170.667,362.667H128V320h42.667V362.667z M170.667,277.333H128v-42.667h42.667V277.333z M170.667,192H128v-42.667h42.667V192z      M170.667,106.667H128V64h42.667V106.667z M384,362.667H213.333V320H256v-42.667h-42.667v-42.667H256V192h-42.667v-42.667H384     V362.667z"
           id="path9122"
           style="fill:#999999" /><rect
           x="298.667"
           y="192"
           width="42.667"
           height="42.667"
           id="rect9124"
           style="fill:#999999" /><rect
           x="298.667"
           y="277.333"
           width="42.667"
           height="42.667"
           id="rect9126"
           style="fill:#999999" /></g></g></g><g
     id="g9134" /><g
     id="g9136" /><g
     id="g9138" /><g
     id="g9140" /><g
     id="g9142" /><g
     id="g9144" /><g
     id="g9146" /><g
     id="g9148" /><g
     id="g9150" /><g
     id="g9152" /><g
     id="g9154" /><g
     id="g9156" /><g
     id="g9158" /><g
     id="g9160" /><g
     id="g9162" /></svg>