<?xml version="1.0" encoding="UTF-8" standalone="no"?>
<!-- Generator: Adobe Illustrator 16.0.0, SVG Export Plug-In . SVG Version: 6.00 Build 0)  -->

<svg
   xmlns:dc="http://purl.org/dc/elements/1.1/"
   xmlns:cc="http://creativecommons.org/ns#"
   xmlns:rdf="http://www.w3.org/1999/02/22-rdf-syntax-ns#"
   xmlns:svg="http://www.w3.org/2000/svg"
   xmlns="http://www.w3.org/2000/svg"
   xmlns:sodipodi="http://sodipodi.sourceforge.net/DTD/sodipodi-0.dtd"
   xmlns:inkscape="http://www.inkscape.org/namespaces/inkscape"
   version="1.1"
   id="Capa_1"
   x="0px"
   y="0px"
   width="484.5px"
   height="484.5px"
   viewBox="0 0 484.5 484.5"
   style="enable-background:new 0 0 484.5 484.5;"
   xml:space="preserve"
   sodipodi:docname="build.svg"
   inkscape:version="0.92.2 (5c3e80d, 2017-08-06)"><metadata
     id="metadata8486"><rdf:RDF><cc:Work
         rdf:about=""><dc:format>image/svg+xml</dc:format><dc:type
           rdf:resource="http://purl.org/dc/dcmitype/StillImage" /><dc:title></dc:title></cc:Work></rdf:RDF></metadata><defs
     id="defs8484" /><sodipodi:namedview
     pagecolor="#ffffff"
     bordercolor="#666666"
     borderopacity="1"
     objecttolerance="10"
     gridtolerance="10"
     guidetolerance="10"
     inkscape:pageopacity="0"
     inkscape:pageshadow="2"
     inkscape:window-width="1920"
     inkscape:window-height="1017"
     id="namedview8482"
     showgrid="false"
     inkscape:zoom="0.4871001"
     inkscape:cx="-13.34428"
     inkscape:cy="242.25"
     inkscape:window-x="-8"
     inkscape:window-y="-8"
     inkscape:window-maximized="1"
     inkscape:current-layer="Capa_1" /><g
     id="g8449"
     style="fill:#999999"><g
       id="location-city"
       style="fill:#999999"><path
         d="M318.75,229.5v-153L242.25,0l-76.5,76.5v51h-153v357h459v-255H318.75z M114.75,433.5h-51v-51h51V433.5z M114.75,331.5h-51    v-51h51V331.5z M114.75,229.5h-51v-51h51V229.5z M267.75,433.5h-51v-51h51V433.5z M267.75,331.5h-51v-51h51V331.5z M267.75,229.5    h-51v-51h51V229.5z M267.75,127.5h-51v-51h51V127.5z M420.75,433.5h-51v-51h51V433.5z M420.75,331.5h-51v-51h51V331.5z"
         id="path8446"
         style="fill:#999999" /></g></g><g
     id="g8451" /><g
     id="g8453" /><g
     id="g8455" /><g
     id="g8457" /><g
     id="g8459" /><g
     id="g8461" /><g
     id="g8463" /><g
     id="g8465" /><g
     id="g8467" /><g
     id="g8469" /><g
     id="g8471" /><g
     id="g8473" /><g
     id="g8475" /><g
     id="g8477" /><g
     id="g8479" /></svg>