<?xml version="1.0" encoding="UTF-8" standalone="no"?>
<!-- Created with Inkscape (http://www.inkscape.org/) -->

<svg
   xmlns:dc="http://purl.org/dc/elements/1.1/"
   xmlns:cc="http://creativecommons.org/ns#"
   xmlns:rdf="http://www.w3.org/1999/02/22-rdf-syntax-ns#"
   xmlns:svg="http://www.w3.org/2000/svg"
   xmlns="http://www.w3.org/2000/svg"
   xmlns:sodipodi="http://sodipodi.sourceforge.net/DTD/sodipodi-0.dtd"
   xmlns:inkscape="http://www.inkscape.org/namespaces/inkscape"
   width="64"
   height="64"
   viewBox="0 0 16.933333 16.933334"
   version="1.1"
   id="svg19517"
   inkscape:version="0.92.2 (5c3e80d, 2017-08-06)"
   sodipodi:docname="gift.svg">
  <defs
     id="defs19511" />
  <sodipodi:namedview
     id="base"
     pagecolor="#ffffff"
     bordercolor="#666666"
     borderopacity="1.0"
     inkscape:pageopacity="0.0"
     inkscape:pageshadow="2"
     inkscape:zoom="2.8"
     inkscape:cx="39.683699"
     inkscape:cy="51.488044"
     inkscape:document-units="px"
     inkscape:current-layer="layer1"
     showgrid="false"
     units="px"
     inkscape:window-width="1920"
     inkscape:window-height="1017"
     inkscape:window-x="-8"
     inkscape:window-y="-8"
     inkscape:window-maximized="1" />
  <metadata
     id="metadata19514">
    <rdf:RDF>
      <cc:Work
         rdf:about="">
        <dc:format>image/svg+xml</dc:format>
        <dc:type
           rdf:resource="http://purl.org/dc/dcmitype/StillImage" />
        <dc:title></dc:title>
      </cc:Work>
    </rdf:RDF>
  </metadata>
  <g
     inkscape:label="Layer 1"
     inkscape:groupmode="layer"
     id="layer1"
     transform="translate(0,-280.06665)">
    <g
       id="g16829"
       transform="matrix(0.03861429,0,0,0.03861429,7.172644e-7,280.06663)"
       style="fill:#999999;fill-opacity:1"
       inkscape:export-xdpi="96"
       inkscape:export-ydpi="96">
      <g
         id="g16797"
         style="fill:#999999;fill-opacity:1">
        <path
           id="path16795"
           d="m 435.969,157.878 c -1.708,-1.712 -3.897,-2.568 -6.57,-2.568 H 303.778 c 17.7,0 32.784,-6.23 45.255,-18.699 12.464,-12.468 18.699,-27.552 18.699,-45.254 0,-17.702 -6.235,-32.786 -18.699,-45.254 -12.471,-12.465 -27.555,-18.699 -45.255,-18.699 -20.365,0 -36.356,7.327 -47.965,21.982 l -36.547,47.108 -36.54,-47.108 c -11.613,-14.655 -27.6,-21.982 -47.967,-21.982 -17.703,0 -32.789,6.23 -45.253,18.699 -12.465,12.468 -18.7,27.552 -18.7,45.254 0,17.702 6.231,32.79 18.7,45.254 12.467,12.465 27.55,18.699 45.253,18.699 H 9.135 c -2.667,0 -4.854,0.856 -6.567,2.568 C 0.857,159.593 0,161.783 0,164.446 v 91.367 c 0,2.662 0.854,4.853 2.568,6.563 1.712,1.711 3.903,2.566 6.567,2.566 h 27.41 v 118.776 c 0,7.618 2.665,14.086 7.995,19.41 5.326,5.332 11.798,7.994 19.414,7.994 h 310.629 c 7.618,0 14.086,-2.662 19.417,-7.994 5.325,-5.328 7.995,-11.799 7.995,-19.41 V 264.942 h 27.397 c 2.669,0 4.859,-0.855 6.57,-2.566 1.711,-1.711 2.563,-3.901 2.563,-6.563 v -91.367 c 0.004,-2.663 -0.845,-4.853 -2.556,-6.568 z M 284.081,72.798 c 4.948,-5.898 11.512,-8.848 19.697,-8.848 7.618,0 14.089,2.662 19.418,7.992 5.324,5.327 7.987,11.8 7.987,19.414 0,7.614 -2.67,14.087 -7.987,19.414 -5.332,5.33 -11.8,7.992 -19.418,7.992 h -55.391 z m -149.325,45.965 c -7.614,0 -14.082,-2.663 -19.42,-7.992 -5.327,-5.327 -7.993,-11.8 -7.993,-19.414 0,-7.614 2.663,-14.084 7.993,-19.414 5.33,-5.33 11.803,-7.992 19.417,-7.992 8.188,0 14.753,2.946 19.702,8.848 l 35.975,45.965 h -55.674 z m 130.195,91.365 v 133.62 15.985 c 0,4.76 -1.719,8.422 -5.141,10.995 -3.429,2.57 -7.809,3.856 -13.131,3.856 H 191.86 c -5.33,0 -9.707,-1.286 -13.134,-3.856 -3.427,-2.573 -5.142,-6.235 -5.142,-10.995 V 343.748 210.128 155.31 h 91.367 z"
           inkscape:connector-curvature="0"
           style="fill:#999999;fill-opacity:1" />
      </g>
      <g
         id="g16799"
         style="fill:#999999;fill-opacity:1" />
      <g
         id="g16801"
         style="fill:#999999;fill-opacity:1" />
      <g
         id="g16803"
         style="fill:#999999;fill-opacity:1" />
      <g
         id="g16805"
         style="fill:#999999;fill-opacity:1" />
      <g
         id="g16807"
         style="fill:#999999;fill-opacity:1" />
      <g
         id="g16809"
         style="fill:#999999;fill-opacity:1" />
      <g
         id="g16811"
         style="fill:#999999;fill-opacity:1" />
      <g
         id="g16813"
         style="fill:#999999;fill-opacity:1" />
      <g
         id="g16815"
         style="fill:#999999;fill-opacity:1" />
      <g
         id="g16817"
         style="fill:#999999;fill-opacity:1" />
      <g
         id="g16819"
         style="fill:#999999;fill-opacity:1" />
      <g
         id="g16821"
         style="fill:#999999;fill-opacity:1" />
      <g
         id="g16823"
         style="fill:#999999;fill-opacity:1" />
      <g
         id="g16825"
         style="fill:#999999;fill-opacity:1" />
      <g
         id="g16827"
         style="fill:#999999;fill-opacity:1" />
    </g>
  </g>
</svg>
