<?xml version="1.0" encoding="UTF-8" standalone="no"?>
<!-- Generator: Adobe Illustrator 16.0.0, SVG Export Plug-In . SVG Version: 6.00 Build 0)  -->

<svg
   xmlns:dc="http://purl.org/dc/elements/1.1/"
   xmlns:cc="http://creativecommons.org/ns#"
   xmlns:rdf="http://www.w3.org/1999/02/22-rdf-syntax-ns#"
   xmlns:svg="http://www.w3.org/2000/svg"
   xmlns="http://www.w3.org/2000/svg"
   xmlns:sodipodi="http://sodipodi.sourceforge.net/DTD/sodipodi-0.dtd"
   xmlns:inkscape="http://www.inkscape.org/namespaces/inkscape"
   version="1.1"
   id="Capa_1"
   x="0px"
   y="0px"
   width="64"
   height="64"
   viewBox="0 0 64 64"
   xml:space="preserve"
   sodipodi:docname="hisotry.svg"
   inkscape:version="0.92.2 (5c3e80d, 2017-08-06)"><metadata
     id="metadata13666"><rdf:RDF><cc:Work
         rdf:about=""><dc:format>image/svg+xml</dc:format><dc:type
           rdf:resource="http://purl.org/dc/dcmitype/StillImage" /><dc:title></dc:title></cc:Work></rdf:RDF></metadata><defs
     id="defs13664" /><sodipodi:namedview
     pagecolor="#ffffff"
     bordercolor="#666666"
     borderopacity="1"
     objecttolerance="10"
     gridtolerance="10"
     guidetolerance="10"
     inkscape:pageopacity="0"
     inkscape:pageshadow="2"
     inkscape:window-width="1920"
     inkscape:window-height="1017"
     id="namedview13662"
     showgrid="false"
     inkscape:zoom="1.3088408"
     inkscape:cx="-0.21912258"
     inkscape:cy="102.81506"
     inkscape:window-x="-8"
     inkscape:window-y="-8"
     inkscape:window-maximized="1"
     inkscape:current-layer="Capa_1" /><g
     id="g13629"
     transform="scale(0.1254902)"
     style="fill:#999999;fill-opacity:1"><g
       id="history"
       style="fill:#999999;fill-opacity:1"><path
         style="opacity:0.9;enable-background:new;fill:#999999;fill-opacity:1"
         d="m 267.75,12.75 c -89.25,0 -168.3,48.45 -209.1,122.4 L 0,76.5 v 165.75 h 165.75 l -71.4,-71.4 C 127.5,107.1 191.25,63.75 267.75,63.75 372.3,63.75 459,150.45 459,255 c 0,104.55 -86.7,191.25 -191.25,191.25 -84.15,0 -153,-53.55 -181.05,-127.5 H 33.15 c 28.05,102 122.4,178.5 234.6,178.5 C 402.9,497.25 510,387.6 510,255 510,122.4 400.35,12.75 267.75,12.75 Z M 229.5,140.25 V 270.3 l 119.85,71.4 20.4,-33.15 -102,-61.2 v -107.1 z"
         id="path13626"
         inkscape:connector-curvature="0" /></g></g><g
     id="g13631"
     transform="translate(0,-446)" /><g
     id="g13633"
     transform="translate(0,-446)" /><g
     id="g13635"
     transform="translate(0,-446)" /><g
     id="g13637"
     transform="translate(0,-446)" /><g
     id="g13639"
     transform="translate(0,-446)" /><g
     id="g13641"
     transform="translate(0,-446)" /><g
     id="g13643"
     transform="translate(0,-446)" /><g
     id="g13645"
     transform="translate(0,-446)" /><g
     id="g13647"
     transform="translate(0,-446)" /><g
     id="g13649"
     transform="translate(0,-446)" /><g
     id="g13651"
     transform="translate(0,-446)" /><g
     id="g13653"
     transform="translate(0,-446)" /><g
     id="g13655"
     transform="translate(0,-446)" /><g
     id="g13657"
     transform="translate(0,-446)" /><g
     id="g13659"
     transform="translate(0,-446)" /></svg>