<?xml version="1.0" encoding="UTF-8" standalone="no"?>
<!-- Generator: Adobe Illustrator 19.0.0, SVG Export Plug-In . SVG Version: 6.00 Build 0)  -->

<svg
   xmlns:dc="http://purl.org/dc/elements/1.1/"
   xmlns:cc="http://creativecommons.org/ns#"
   xmlns:rdf="http://www.w3.org/1999/02/22-rdf-syntax-ns#"
   xmlns:svg="http://www.w3.org/2000/svg"
   xmlns="http://www.w3.org/2000/svg"
   xmlns:sodipodi="http://sodipodi.sourceforge.net/DTD/sodipodi-0.dtd"
   xmlns:inkscape="http://www.inkscape.org/namespaces/inkscape"
   version="1.1"
   id="Capa_1"
   x="0px"
   y="0px"
   viewBox="0 0 426.667 426.667"
   style="enable-background:new 0 0 426.667 426.667;"
   xml:space="preserve"
   sodipodi:docname="shopping-cart.svg"
   inkscape:version="0.92.2 (5c3e80d, 2017-08-06)"><metadata
     id="metadata4685"><rdf:RDF><cc:Work
         rdf:about=""><dc:format>image/svg+xml</dc:format><dc:type
           rdf:resource="http://purl.org/dc/dcmitype/StillImage" /></cc:Work></rdf:RDF></metadata><defs
     id="defs4683" /><sodipodi:namedview
     pagecolor="#ffffff"
     bordercolor="#666666"
     borderopacity="1"
     objecttolerance="10"
     gridtolerance="10"
     guidetolerance="10"
     inkscape:pageopacity="0"
     inkscape:pageshadow="2"
     inkscape:window-width="776"
     inkscape:window-height="480"
     id="namedview4681"
     showgrid="false"
     inkscape:zoom="0.55312458"
     inkscape:cx="-11.751421"
     inkscape:cy="213.3335"
     inkscape:window-x="0"
     inkscape:window-y="0"
     inkscape:window-maximized="0"
     inkscape:current-layer="Capa_1" /><g
     id="g4648"
     style="fill:#999999"><g
       id="g4646"
       style="fill:#999999"><g
         id="g4644"
         style="fill:#999999"><path
           d="M128,341.333c-23.573,0-42.453,19.093-42.453,42.667s18.88,42.667,42.453,42.667c23.573,0,42.667-19.093,42.667-42.667     S151.573,341.333,128,341.333z"
           id="path4638"
           style="fill:#999999" /><path
           d="M341.333,341.333c-23.573,0-42.453,19.093-42.453,42.667s18.88,42.667,42.453,42.667     C364.907,426.667,384,407.573,384,384S364.907,341.333,341.333,341.333z"
           id="path4640"
           style="fill:#999999" /><path
           d="M151.467,234.667H310.4c16,0,29.973-8.853,37.333-21.973L424,74.24c1.707-2.987,2.667-6.507,2.667-10.24     c0-11.84-9.6-21.333-21.333-21.333H89.92L69.653,0H0v42.667h42.667L119.36,204.48l-28.8,52.267     c-3.307,6.187-5.227,13.12-5.227,20.587C85.333,300.907,104.427,320,128,320h256v-42.667H137.067     c-2.987,0-5.333-2.347-5.333-5.333c0-0.96,0.213-1.813,0.64-2.56L151.467,234.667z"
           id="path4642"
           style="fill:#999999" /></g></g></g><g
     id="g4650" /><g
     id="g4652" /><g
     id="g4654" /><g
     id="g4656" /><g
     id="g4658" /><g
     id="g4660" /><g
     id="g4662" /><g
     id="g4664" /><g
     id="g4666" /><g
     id="g4668" /><g
     id="g4670" /><g
     id="g4672" /><g
     id="g4674" /><g
     id="g4676" /><g
     id="g4678" /></svg>