<?xml version="1.0" encoding="UTF-8" standalone="no"?>
<!-- Generator: Adobe Illustrator 16.0.0, SVG Export Plug-In . SVG Version: 6.00 Build 0)  -->

<svg
   xmlns:dc="http://purl.org/dc/elements/1.1/"
   xmlns:cc="http://creativecommons.org/ns#"
   xmlns:rdf="http://www.w3.org/1999/02/22-rdf-syntax-ns#"
   xmlns:svg="http://www.w3.org/2000/svg"
   xmlns="http://www.w3.org/2000/svg"
   xmlns:sodipodi="http://sodipodi.sourceforge.net/DTD/sodipodi-0.dtd"
   xmlns:inkscape="http://www.inkscape.org/namespaces/inkscape"
   version="1.1"
   id="Capa_1"
   x="0px"
   y="0px"
   width="64"
   height="64"
   viewBox="0 0 64 64"
   xml:space="preserve"
   sodipodi:docname="submenu.svg"
   inkscape:version="0.92.2 (5c3e80d, 2017-08-06)"><metadata
     id="metadata8905"><rdf:RDF><cc:Work
         rdf:about=""><dc:format>image/svg+xml</dc:format><dc:type
           rdf:resource="http://purl.org/dc/dcmitype/StillImage" /><dc:title></dc:title></cc:Work></rdf:RDF></metadata><defs
     id="defs8903" /><sodipodi:namedview
     pagecolor="#ffffff"
     bordercolor="#666666"
     borderopacity="1"
     objecttolerance="10"
     gridtolerance="10"
     guidetolerance="10"
     inkscape:pageopacity="0"
     inkscape:pageshadow="2"
     inkscape:window-width="1920"
     inkscape:window-height="1017"
     id="namedview8901"
     showgrid="false"
     inkscape:zoom="4.6966226"
     inkscape:cx="21.722834"
     inkscape:cy="44.438906"
     inkscape:window-x="-8"
     inkscape:window-y="-8"
     inkscape:window-maximized="1"
     inkscape:current-layer="Capa_1" /><g
     id="g8868"
     transform="matrix(0.15920794,0,0,0.15920794,-1.5930986e-4,9.9699989e-8)"
     style="fill:#868789;fill-opacity:1"><g
       id="g8866"
       style="fill:#868789;fill-opacity:1"><path
         d="M 228.406,292.362 H 173.59 c -7.616,0 -14.084,2.662 -19.414,7.99 -5.33,5.329 -7.994,11.797 -7.994,19.411 v 54.826 c 0,7.611 2.664,14.086 7.994,19.41 5.327,5.332 11.798,7.991 19.414,7.991 h 54.816 c 7.614,0 14.082,-2.663 19.41,-7.991 5.328,-5.328 7.994,-11.799 7.994,-19.41 v -54.826 c 0,-7.614 -2.666,-14.082 -7.994,-19.411 -5.321,-5.328 -11.796,-7.99 -19.41,-7.99 z"
         id="path8860"
         inkscape:connector-curvature="0"
         style="fill:#868789;fill-opacity:1" /><path
         d="M 228.406,146.181 H 173.59 c -7.616,0 -14.084,2.664 -19.414,7.994 -5.33,5.33 -7.994,11.798 -7.994,19.414 v 54.819 c 0,7.618 2.664,14.086 7.994,19.411 5.327,5.332 11.798,7.994 19.414,7.994 h 54.816 c 7.614,0 14.082,-2.662 19.41,-7.994 5.328,-5.325 7.994,-11.793 7.994,-19.411 v -54.819 c 0,-7.616 -2.666,-14.087 -7.994,-19.414 -5.321,-5.33 -11.796,-7.994 -19.41,-7.994 z"
         id="path8862"
         inkscape:connector-curvature="0"
         style="fill:#868789;fill-opacity:1" /><path
         d="M 247.816,7.993 C 242.488,2.666 236.02,0 228.406,0 H 173.59 c -7.616,0 -14.084,2.663 -19.414,7.993 -5.33,5.33 -7.994,11.803 -7.994,19.414 v 54.821 c 0,7.616 2.664,14.084 7.994,19.414 5.327,5.327 11.798,7.994 19.414,7.994 h 54.816 c 7.614,0 14.082,-2.664 19.41,-7.994 5.328,-5.327 7.994,-11.798 7.994,-19.414 V 27.406 c 0.003,-7.611 -2.659,-14.084 -7.994,-19.413 z"
         id="path8864"
         inkscape:connector-curvature="0"
         style="fill:#868789;fill-opacity:1" /></g></g><g
     id="g8870"
     transform="translate(0,-337.991)" /><g
     id="g8872"
     transform="translate(0,-337.991)" /><g
     id="g8874"
     transform="translate(0,-337.991)" /><g
     id="g8876"
     transform="translate(0,-337.991)" /><g
     id="g8878"
     transform="translate(0,-337.991)" /><g
     id="g8880"
     transform="translate(0,-337.991)" /><g
     id="g8882"
     transform="translate(0,-337.991)" /><g
     id="g8884"
     transform="translate(0,-337.991)" /><g
     id="g8886"
     transform="translate(0,-337.991)" /><g
     id="g8888"
     transform="translate(0,-337.991)" /><g
     id="g8890"
     transform="translate(0,-337.991)" /><g
     id="g8892"
     transform="translate(0,-337.991)" /><g
     id="g8894"
     transform="translate(0,-337.991)" /><g
     id="g8896"
     transform="translate(0,-337.991)" /><g
     id="g8898"
     transform="translate(0,-337.991)" /></svg>